<?xml version="1.0" encoding="utf-8"?>
<!-- Generator: Adobe Illustrator 26.0.3, SVG Export Plug-In . SVG Version: 6.00 Build 0)  -->
<svg version="1.1" id="Layer_1" xmlns="http://www.w3.org/2000/svg" xmlns:xlink="http://www.w3.org/1999/xlink" x="0px" y="0px"
	 viewBox="0 0 40 40" style="enable-background:new 0 0 40 40;" xml:space="preserve">
<style type="text/css">
	.st0{fill:#FFFFFF;}
	.st1{fill:#032D42;}
</style>
<circle class="st0" cx="20" cy="20" r="19.2"/>
<path class="st0" d="M39.5,20C39.5,9.2,30.8,0.5,20,0.5S0.5,9.2,0.5,20S9.2,39.5,20,39.5S39.5,30.8,39.5,20z M39.2,20
	c0,10.6-8.6,19.2-19.2,19.2S0.8,30.6,0.8,20S9.4,0.8,20,0.8S39.2,9.4,39.2,20z"/>
<path class="st1" d="M25.5,20.5L25.5,20.5l-5.1,5.1c-0.3,0.3-0.7,0.3-1,0s-0.3-0.7,0-1l3.8-3.8H15c-0.4,0-0.7-0.3-0.7-0.7
	c0-0.4,0.3-0.7,0.7-0.7h8.2l-3.9-3.9c-0.3-0.3-0.3-0.7,0-1s0.7-0.3,1,0l5.1,5.1C25.8,19.8,25.8,20.2,25.5,20.5z"/>
</svg>
